<svg width="266" height="348" viewBox="0 0 266 348" fill="none" xmlns="http://www.w3.org/2000/svg">
<path d="M37.2379 162.516C37.2379 98.7129 88.9605 46.9902 152.764 46.9902H210.76V208.055C210.76 272.92 158.177 325.503 93.3126 325.503H37.2379V162.516Z" fill="url(#paint0_linear_8614_24215)"/>
<g filter="url(#filter0_f_8614_24215)">
<rect x="65.0382" y="66.9863" width="132.498" height="126.889" rx="20" fill="#FCD3E9"/>
</g>
<g filter="url(#filter1_ddd_8614_24215)">
<rect x="61" y="60.5234" width="131.732" height="131.732" rx="28.0281" fill="white"/>
<rect x="75" y="75" width="104" height="101" rx="20" fill="#E4F6EE"/>
<g clip-path="url(#clip0_8614_24215)">
<path d="M133.134 90.9199H106.497C103.912 90.9199 101.797 93.0352 101.797 95.6207V155.162C101.797 157.749 103.912 159.863 106.497 159.863H147.236C149.822 159.863 151.937 157.748 151.937 155.162V109.723L140.969 101.888L133.134 90.9199Z" fill="#0F9C57"/>
<path d="M114.332 124.607V147.328H139.403V124.607H114.332ZM125.3 144.194H117.465V140.277H125.3V144.194ZM125.3 137.927H117.465V134.008H125.3V137.927ZM125.3 131.658H117.465V127.741H125.3V131.658ZM136.268 144.194H128.433V140.277H136.268V144.194ZM136.268 137.927H128.433V134.008H136.268V137.927ZM136.268 131.658H128.433V127.741H136.268V131.658Z" fill="#F0F0F0"/>
<mask id="mask0_8614_24215" style="mask-type:luminance" maskUnits="userSpaceOnUse" x="134" y="108" width="18" height="21">
<path fill-rule="evenodd" clip-rule="evenodd" d="M134.479 108.314H151.968V128.804H134.479V108.314Z" fill="url(#paint1_linear_8614_24215)"/>
</mask>
<g mask="url(#mask0_8614_24215)">
<path d="M134.51 108.346L151.937 125.77V109.721L134.51 108.346Z" fill="url(#paint2_linear_8614_24215)"/>
</g>
<path d="M133.134 90.9199V105.022C133.134 107.62 135.238 109.723 137.834 109.723H151.937L133.134 90.9199Z" fill="#87CDAC"/>
<path d="M106.497 90.9199C103.911 90.9199 101.796 93.0352 101.796 95.6209V96.0125C101.796 93.4273 103.912 91.3117 106.497 91.3117H133.134V90.9201H106.497V90.9199Z" fill="white" fill-opacity="0.2"/>
<path d="M147.236 159.47H106.497C103.911 159.47 101.796 157.354 101.796 154.77V155.16C101.796 157.747 103.912 159.861 106.497 159.861H147.236C149.822 159.861 151.936 157.747 151.936 155.16V154.77C151.936 157.355 149.822 159.47 147.236 159.47Z" fill="#263138" fill-opacity="0.2"/>
<path d="M137.834 109.724C135.238 109.724 133.134 107.621 133.134 105.023V105.415C133.134 108.012 135.238 110.116 137.834 110.116H151.936V109.724H137.834Z" fill="#263138" fill-opacity="0.102"/>
<mask id="mask1_8614_24215" style="mask-type:luminance" maskUnits="userSpaceOnUse" x="101" y="90" width="51" height="70">
<path fill-rule="evenodd" clip-rule="evenodd" d="M101.766 90.8887H151.968V159.894H101.766V90.8887Z" fill="url(#paint3_radial_8614_24215)"/>
</mask>
<g mask="url(#mask1_8614_24215)">
<path d="M133.134 90.9199H106.498C103.912 90.9199 101.797 93.0352 101.797 95.6209V155.162C101.797 157.749 103.912 159.863 106.498 159.863H147.236C149.823 159.863 151.937 157.748 151.937 155.162V109.723L133.134 90.9199Z" fill="url(#paint4_radial_8614_24215)"/>
</g>
</g>
</g>
<g filter="url(#filter2_dddd_8614_24215)">
<path d="M77.4237 40.1973C80.4799 40.1975 82.9569 42.6752 82.9569 45.7314V91.4961C82.9569 92.0764 82.2543 92.366 81.8456 91.9541L74.1581 84.1992H44.4901C41.4338 84.1992 38.956 81.7214 38.956 78.665V45.7314C38.956 42.6751 41.4338 40.1973 44.4901 40.1973H77.4237Z" fill="url(#paint5_linear_8614_24215)"/>
<path d="M77.4237 40.1973L77.4237 40.0375H77.4237V40.1973ZM82.9569 91.4961L83.1167 91.4961V91.4961H82.9569ZM81.8456 91.9541L81.7321 92.0666L81.7322 92.0667L81.8456 91.9541ZM74.1581 84.1992L74.2716 84.0867L74.2247 84.0394H74.1581V84.1992ZM77.4237 40.1973L77.4237 40.3571C80.3916 40.3573 82.7971 42.7635 82.7971 45.7314H82.9569H83.1167C83.1167 42.587 80.5682 40.0377 77.4237 40.0375L77.4237 40.1973ZM82.9569 45.7314H82.7971V91.4961H82.9569H83.1167V45.7314H82.9569ZM82.9569 91.4961L82.7971 91.4961C82.7971 91.9339 82.2672 92.1521 81.9591 91.8415L81.8456 91.9541L81.7322 92.0667C82.2415 92.5799 83.1166 92.219 83.1167 91.4961L82.9569 91.4961ZM81.8456 91.9541L81.9591 91.8416L74.2716 84.0867L74.1581 84.1992L74.0446 84.3117L81.7321 92.0666L81.8456 91.9541ZM74.1581 84.1992V84.0394H44.4901V84.1992V84.359H74.1581V84.1992ZM44.4901 84.1992V84.0394C41.5221 84.0394 39.1158 81.6331 39.1158 78.665H38.956H38.7962C38.7962 81.8096 41.3455 84.359 44.4901 84.359V84.1992ZM38.956 78.665H39.1158V45.7314H38.956H38.7962V78.665H38.956ZM38.956 45.7314H39.1158C39.1158 42.7634 41.5221 40.3571 44.4901 40.3571V40.1973V40.0375C41.3455 40.0375 38.7962 42.5868 38.7962 45.7314H38.956ZM44.4901 40.1973V40.3571H77.4237V40.1973V40.0375H44.4901V40.1973Z" fill="#F8F1FE"/>
</g>
<path d="M50.6826 68.9883L55.5898 54.8545H59.0669L63.9838 68.9883H60.8691L59.8211 65.5601H54.8356L53.7875 68.9883H50.6826ZM57.2451 57.6754L55.5114 63.3465H59.1452L57.4214 57.6754H57.2451ZM65.9459 68.9883V54.8545H68.9039V68.9883H65.9459Z" fill="url(#paint6_linear_8614_24215)"/>
<g filter="url(#filter3_dddd_8614_24215)">
<rect x="61.7102" y="210" width="176.671" height="24.1306" rx="12.0653" fill="white"/>
<path d="M164.182 217.412H168.877V222.052C168.877 224.625 166.808 226.72 164.237 226.72H159.569V222.052C159.569 219.493 161.638 217.412 164.182 217.412Z" fill="#9C77D4"/>
<path d="M178.143 217.412H182.838V222.052C182.838 224.625 180.77 226.72 178.198 226.72H173.531V222.052C173.531 219.493 175.599 217.412 178.143 217.412Z" fill="#DCD8E4"/>
<path d="M192.105 217.412H196.799V222.052C196.799 224.625 194.731 226.72 192.159 226.72H187.492V222.052C187.492 219.493 189.56 217.412 192.105 217.412Z" fill="#DCD8E4"/>
<path d="M206.066 217.412H210.761V222.052C210.761 224.625 208.692 226.72 206.121 226.72H201.453V222.052C201.453 219.493 203.522 217.412 206.066 217.412Z" fill="#DCD8E4"/>
<path d="M220.027 217.412H224.722V222.052C224.722 224.625 222.654 226.72 220.082 226.72H215.414V222.052C215.414 219.493 217.483 217.412 220.027 217.412Z" fill="#DCD8E4"/>
<rect x="73.7756" y="218.846" width="65.2618" height="6.42909" rx="1.72362" fill="#DAD2E1"/>
<rect x="61.7102" y="239.303" width="176.671" height="24.1306" rx="12.0653" fill="white"/>
<path d="M164.182 246.717H168.877V251.357C168.877 253.93 166.808 256.024 164.236 256.024H159.569V251.357C159.569 248.797 161.637 246.717 164.182 246.717Z" fill="#9C77D4"/>
<path d="M178.143 246.717H182.838V251.357C182.838 253.93 180.77 256.024 178.198 256.024H173.53V251.357C173.53 248.797 175.599 246.717 178.143 246.717Z" fill="#9C77D4"/>
<path d="M192.105 246.717H196.799V251.357C196.799 253.93 194.731 256.024 192.159 256.024H187.492V251.357C187.492 248.797 189.56 246.717 192.105 246.717Z" fill="#9C77D4"/>
<path d="M206.066 246.717H210.76V251.357C210.76 253.93 208.692 256.024 206.12 256.024H201.453V251.357C201.453 248.797 203.521 246.717 206.066 246.717Z" fill="#DCD8E4"/>
<path d="M220.027 246.717H224.722V251.357C224.722 253.93 222.653 256.024 220.082 256.024H215.414V251.357C215.414 248.797 217.483 246.717 220.027 246.717Z" fill="#DCD8E4"/>
<rect x="73.7755" y="248.15" width="43.1544" height="6.42909" rx="1.72362" fill="#DAD2E1"/>
<rect x="61.7102" y="268.604" width="176.671" height="24.1306" rx="12.0653" fill="white"/>
<path d="M164.182 276.018H168.877V280.658C168.877 283.231 166.808 285.325 164.237 285.325H159.569V280.658C159.569 278.098 161.638 276.018 164.182 276.018Z" fill="#9C77D4"/>
<path d="M178.143 276.018H182.838V280.658C182.838 283.231 180.77 285.325 178.198 285.325H173.531V280.658C173.531 278.098 175.599 276.018 178.143 276.018Z" fill="#9C77D4"/>
<path d="M192.105 276.018H196.799V280.658C196.799 283.231 194.731 285.325 192.159 285.325H187.492V280.658C187.492 278.098 189.56 276.018 192.105 276.018Z" fill="#9C77D4"/>
<path d="M206.066 276.018H210.761V280.658C210.761 283.231 208.692 285.325 206.121 285.325H201.453V280.658C201.453 278.098 203.522 276.018 206.066 276.018Z" fill="#9C77D4"/>
<path d="M220.027 276.018H224.722V280.658C224.722 283.231 222.654 285.325 220.082 285.325H215.414V280.658C215.414 278.098 217.483 276.018 220.027 276.018Z" fill="#DCD8E4"/>
<rect x="73.7756" y="277.451" width="53.6038" height="6.42909" rx="1.72362" fill="#DAD2E1"/>
</g>
<defs>
<filter id="filter0_f_8614_24215" x="37.1382" y="39.0863" width="188.298" height="182.689" filterUnits="userSpaceOnUse" color-interpolation-filters="sRGB">
<feFlood flood-opacity="0" result="BackgroundImageFix"/>
<feBlend mode="normal" in="SourceGraphic" in2="BackgroundImageFix" result="shape"/>
<feGaussianBlur stdDeviation="13.95" result="effect1_foregroundBlur_8614_24215"/>
</filter>
<filter id="filter1_ddd_8614_24215" x="2" y="0" width="241.732" height="328.256" filterUnits="userSpaceOnUse" color-interpolation-filters="sRGB">
<feFlood flood-opacity="0" result="BackgroundImageFix"/>
<feColorMatrix in="SourceAlpha" type="matrix" values="0 0 0 0 0 0 0 0 0 0 0 0 0 0 0 0 0 0 127 0" result="hardAlpha"/>
<feOffset dy="9"/>
<feGaussianBlur stdDeviation="10.5"/>
<feColorMatrix type="matrix" values="0 0 0 0 0.760784 0 0 0 0 0.537255 0 0 0 0 0.823529 0 0 0 0.2 0"/>
<feBlend mode="normal" in2="BackgroundImageFix" result="effect1_dropShadow_8614_24215"/>
<feColorMatrix in="SourceAlpha" type="matrix" values="0 0 0 0 0 0 0 0 0 0 0 0 0 0 0 0 0 0 127 0" result="hardAlpha"/>
<feOffset dy="38"/>
<feGaussianBlur stdDeviation="19"/>
<feColorMatrix type="matrix" values="0 0 0 0 0.760784 0 0 0 0 0.537255 0 0 0 0 0.823529 0 0 0 0.17 0"/>
<feBlend mode="normal" in2="effect1_dropShadow_8614_24215" result="effect2_dropShadow_8614_24215"/>
<feColorMatrix in="SourceAlpha" type="matrix" values="0 0 0 0 0 0 0 0 0 0 0 0 0 0 0 0 0 0 127 0" result="hardAlpha"/>
<feOffset dy="85"/>
<feGaussianBlur stdDeviation="25.5"/>
<feColorMatrix type="matrix" values="0 0 0 0 0.760784 0 0 0 0 0.537255 0 0 0 0 0.823529 0 0 0 0.1 0"/>
<feBlend mode="normal" in2="effect2_dropShadow_8614_24215" result="effect3_dropShadow_8614_24215"/>
<feBlend mode="normal" in="SourceGraphic" in2="effect3_dropShadow_8614_24215" result="shape"/>
</filter>
<filter id="filter2_dddd_8614_24215" x="26.0114" y="37.4802" width="69.8901" height="99.2555" filterUnits="userSpaceOnUse" color-interpolation-filters="sRGB">
<feFlood flood-opacity="0" result="BackgroundImageFix"/>
<feColorMatrix in="SourceAlpha" type="matrix" values="0 0 0 0 0 0 0 0 0 0 0 0 0 0 0 0 0 0 127 0" result="hardAlpha"/>
<feOffset dy="1.91771"/>
<feGaussianBlur stdDeviation="2.23733"/>
<feColorMatrix type="matrix" values="0 0 0 0 0.65098 0 0 0 0 0.52549 0 0 0 0 0.733333 0 0 0 0.16 0"/>
<feBlend mode="normal" in2="BackgroundImageFix" result="effect1_dropShadow_8614_24215"/>
<feColorMatrix in="SourceAlpha" type="matrix" values="0 0 0 0 0 0 0 0 0 0 0 0 0 0 0 0 0 0 127 0" result="hardAlpha"/>
<feOffset dy="7.99048"/>
<feGaussianBlur stdDeviation="3.99524"/>
<feColorMatrix type="matrix" values="0 0 0 0 0.65098 0 0 0 0 0.52549 0 0 0 0 0.733333 0 0 0 0.13 0"/>
<feBlend mode="normal" in2="effect1_dropShadow_8614_24215" result="effect2_dropShadow_8614_24215"/>
<feColorMatrix in="SourceAlpha" type="matrix" values="0 0 0 0 0 0 0 0 0 0 0 0 0 0 0 0 0 0 127 0" result="hardAlpha"/>
<feOffset dy="17.8987"/>
<feGaussianBlur stdDeviation="5.27372"/>
<feColorMatrix type="matrix" values="0 0 0 0 0.65098 0 0 0 0 0.52549 0 0 0 0 0.733333 0 0 0 0.08 0"/>
<feBlend mode="normal" in2="effect2_dropShadow_8614_24215" result="effect3_dropShadow_8614_24215"/>
<feColorMatrix in="SourceAlpha" type="matrix" values="0 0 0 0 0 0 0 0 0 0 0 0 0 0 0 0 0 0 127 0" result="hardAlpha"/>
<feOffset dy="31.6423"/>
<feGaussianBlur stdDeviation="6.39238"/>
<feColorMatrix type="matrix" values="0 0 0 0 0.65098 0 0 0 0 0.52549 0 0 0 0 0.733333 0 0 0 0.02 0"/>
<feBlend mode="normal" in2="effect3_dropShadow_8614_24215" result="effect4_dropShadow_8614_24215"/>
<feBlend mode="normal" in="SourceGraphic" in2="effect4_dropShadow_8614_24215" result="shape"/>
</filter>
<filter id="filter3_dddd_8614_24215" x="59.7102" y="209" width="180.671" height="91.7344" filterUnits="userSpaceOnUse" color-interpolation-filters="sRGB">
<feFlood flood-opacity="0" result="BackgroundImageFix"/>
<feColorMatrix in="SourceAlpha" type="matrix" values="0 0 0 0 0 0 0 0 0 0 0 0 0 0 0 0 0 0 127 0" result="hardAlpha"/>
<feOffset/>
<feGaussianBlur stdDeviation="0.5"/>
<feColorMatrix type="matrix" values="0 0 0 0 0.305882 0 0 0 0 0.164706 0 0 0 0 0.513726 0 0 0 0.07 0"/>
<feBlend mode="normal" in2="BackgroundImageFix" result="effect1_dropShadow_8614_24215"/>
<feColorMatrix in="SourceAlpha" type="matrix" values="0 0 0 0 0 0 0 0 0 0 0 0 0 0 0 0 0 0 127 0" result="hardAlpha"/>
<feOffset dy="1"/>
<feGaussianBlur stdDeviation="0.5"/>
<feColorMatrix type="matrix" values="0 0 0 0 0.305882 0 0 0 0 0.164706 0 0 0 0 0.513726 0 0 0 0.06 0"/>
<feBlend mode="normal" in2="effect1_dropShadow_8614_24215" result="effect2_dropShadow_8614_24215"/>
<feColorMatrix in="SourceAlpha" type="matrix" values="0 0 0 0 0 0 0 0 0 0 0 0 0 0 0 0 0 0 127 0" result="hardAlpha"/>
<feOffset dy="3"/>
<feGaussianBlur stdDeviation="1"/>
<feColorMatrix type="matrix" values="0 0 0 0 0.305882 0 0 0 0 0.164706 0 0 0 0 0.513726 0 0 0 0.03 0"/>
<feBlend mode="normal" in2="effect2_dropShadow_8614_24215" result="effect3_dropShadow_8614_24215"/>
<feColorMatrix in="SourceAlpha" type="matrix" values="0 0 0 0 0 0 0 0 0 0 0 0 0 0 0 0 0 0 127 0" result="hardAlpha"/>
<feOffset dy="6"/>
<feGaussianBlur stdDeviation="1"/>
<feColorMatrix type="matrix" values="0 0 0 0 0.305882 0 0 0 0 0.164706 0 0 0 0 0.513726 0 0 0 0.01 0"/>
<feBlend mode="normal" in2="effect3_dropShadow_8614_24215" result="effect4_dropShadow_8614_24215"/>
<feBlend mode="normal" in="SourceGraphic" in2="effect4_dropShadow_8614_24215" result="shape"/>
</filter>
<linearGradient id="paint0_linear_8614_24215" x1="210.76" y1="186.247" x2="37.2379" y2="186.247" gradientUnits="userSpaceOnUse">
<stop stop-color="#E9E0F5"/>
<stop offset="1" stop-color="#FFD3E9"/>
</linearGradient>
<linearGradient id="paint1_linear_8614_24215" x1="143.224" y1="109.775" x2="143.224" y2="127.343" gradientUnits="userSpaceOnUse">
<stop stop-color="white" stop-opacity="0.02"/>
<stop offset="1" stop-color="white" stop-opacity="0.2"/>
</linearGradient>
<linearGradient id="paint2_linear_8614_24215" x1="143.223" y1="110.593" x2="143.223" y2="126.526" gradientUnits="userSpaceOnUse">
<stop stop-color="#263138"/>
<stop offset="1" stop-color="#263138"/>
</linearGradient>
<radialGradient id="paint3_radial_8614_24215" cx="0" cy="0" r="1" gradientTransform="matrix(0 0 0 0 101.797 90.9197)" gradientUnits="userSpaceOnUse">
<stop stop-color="white" stop-opacity="0"/>
<stop offset="1" stop-color="white" stop-opacity="0.098"/>
</radialGradient>
<radialGradient id="paint4_radial_8614_24215" cx="0" cy="0" r="1" gradientUnits="userSpaceOnUse" gradientTransform="translate(103.802 92.9883) scale(34.4716 34.4716)">
<stop stop-color="white"/>
<stop offset="1" stop-color="white"/>
</radialGradient>
<linearGradient id="paint5_linear_8614_24215" x1="82.9569" y1="66.1724" x2="38.956" y2="66.1724" gradientUnits="userSpaceOnUse">
<stop stop-color="#F8F2FF"/>
<stop offset="1" stop-color="#FCEEF5"/>
</linearGradient>
<linearGradient id="paint6_linear_8614_24215" x1="70.7977" y1="65.7383" x2="49.7977" y2="65.7383" gradientUnits="userSpaceOnUse">
<stop stop-color="#5A1CB7"/>
<stop offset="1" stop-color="#D91C7A"/>
</linearGradient>
<clipPath id="clip0_8614_24215">
<rect width="50.1402" height="68.9431" fill="white" transform="translate(101.796 90.918)"/>
</clipPath>
</defs>
</svg>
