<svg width="104" height="101" viewBox="0 0 104 101" fill="none" xmlns="http://www.w3.org/2000/svg">
<rect width="104" height="101" rx="20" fill="#E4F6EE"/>
<g clip-path="url(#clip0_8862_76893)">
<path d="M58.134 15.918H31.4977C28.9119 15.918 26.7969 18.0332 26.7969 20.6188V80.1602C26.7969 82.7466 28.9121 84.861 31.4977 84.861H72.2361C74.8225 84.861 76.9369 82.7464 76.9369 80.1602V34.721L65.9691 26.8863L58.134 15.918Z" fill="#0F9C57"/>
<path d="M39.3311 49.6055V72.3263H64.4021V49.6055H39.3311ZM50.2996 69.1918H42.4647V65.2749H50.2996V69.1918ZM50.2996 62.9247H42.4647V59.0061H50.2996V62.9247ZM50.2996 56.6557H42.4647V52.7391H50.2996V56.6557ZM61.2678 69.1918H53.4323V65.2749H61.2678V69.1918ZM61.2678 62.9247H53.4323V59.0061H61.2678V62.9247ZM61.2678 56.6557H53.4323V52.7391H61.2678V56.6557Z" fill="#F0F0F0"/>
<mask id="mask0_8862_76893" style="mask-type:luminance" maskUnits="userSpaceOnUse" x="59" y="33" width="18" height="21">
<path fill-rule="evenodd" clip-rule="evenodd" d="M59.4785 33.3125H76.9676V53.8021H59.4785V33.3125Z" fill="url(#paint0_linear_8862_76893)"/>
</mask>
<g mask="url(#mask0_8862_76893)">
<path d="M59.5098 33.3438L76.9368 50.7681V34.7192L59.5098 33.3438Z" fill="url(#paint1_linear_8862_76893)"/>
</g>
<path d="M58.1328 15.918V30.0204C58.1328 32.6176 60.2369 34.721 62.8334 34.721H76.9357L58.1328 15.918Z" fill="#87CDAC"/>
<path d="M31.4967 15.918C28.9109 15.918 26.7959 18.0332 26.7959 20.619V21.0105C26.7959 18.4254 28.9111 16.3097 31.4967 16.3097H58.133V15.9182H31.4967V15.918Z" fill="white" fill-opacity="0.2"/>
<path d="M72.2351 84.4684H31.4967C28.9109 84.4684 26.7959 82.3525 26.7959 79.7676V80.1585C26.7959 82.7449 28.9111 84.8593 31.4967 84.8593H72.2351C74.8215 84.8593 76.9359 82.7447 76.9359 80.1585V79.7676C76.9359 82.3527 74.8213 84.4684 72.2351 84.4684Z" fill="#263138" fill-opacity="0.2"/>
<path d="M62.8334 34.7221C60.2369 34.7221 58.1328 32.6186 58.1328 30.0215V30.413C58.1328 33.0102 60.2369 35.1136 62.8334 35.1136H76.9357V34.7221H62.8334Z" fill="#263138" fill-opacity="0.102"/>
<mask id="mask1_8862_76893" style="mask-type:luminance" maskUnits="userSpaceOnUse" x="26" y="15" width="51" height="70">
<path fill-rule="evenodd" clip-rule="evenodd" d="M26.7656 15.8867H76.9679V84.8918H26.7656V15.8867Z" fill="url(#paint2_radial_8862_76893)"/>
</mask>
<g mask="url(#mask1_8862_76893)">
<path d="M58.134 15.918H31.4977C28.9119 15.918 26.7969 18.0332 26.7969 20.619V80.1602C26.7969 82.7466 28.9121 84.861 31.4977 84.861H72.2361C74.8225 84.861 76.9369 82.7464 76.9369 80.1602V34.721L58.134 15.918Z" fill="url(#paint3_radial_8862_76893)"/>
</g>
</g>
<defs>
<linearGradient id="paint0_linear_8862_76893" x1="68.2231" y1="34.7735" x2="68.2231" y2="52.3412" gradientUnits="userSpaceOnUse">
<stop stop-color="white" stop-opacity="0.02"/>
<stop offset="1" stop-color="white" stop-opacity="0.2"/>
</linearGradient>
<linearGradient id="paint1_linear_8862_76893" x1="68.2233" y1="35.5908" x2="68.2233" y2="51.5243" gradientUnits="userSpaceOnUse">
<stop stop-color="#263138"/>
<stop offset="1" stop-color="#263138"/>
</linearGradient>
<radialGradient id="paint2_radial_8862_76893" cx="0" cy="0" r="1" gradientTransform="matrix(0 0 0 0 26.7966 15.9177)" gradientUnits="userSpaceOnUse">
<stop stop-color="white" stop-opacity="0"/>
<stop offset="1" stop-color="white" stop-opacity="0.098"/>
</radialGradient>
<radialGradient id="paint3_radial_8862_76893" cx="0" cy="0" r="1" gradientUnits="userSpaceOnUse" gradientTransform="translate(28.8023 17.9863) scale(34.4716 34.4716)">
<stop stop-color="white"/>
<stop offset="1" stop-color="white"/>
</radialGradient>
<clipPath id="clip0_8862_76893">
<rect width="50.1402" height="68.9431" fill="white" transform="translate(26.7959 15.918)"/>
</clipPath>
</defs>
</svg>
