<svg width="512" height="512" viewBox="0 0 512 512" fill="none" xmlns="http://www.w3.org/2000/svg">
<rect width="512" height="512" rx="100" fill="black"/>
<path d="M306.863 116C322.894 116 337.834 117.744 351.68 121.234C365.768 124.433 378.034 129.959 388.479 137.811C398.924 145.664 407.061 156.281 412.891 169.659C418.963 183.038 422 199.76 422 219.828C422 239.896 418.963 256.184 412.891 268.69C407.061 281.195 398.923 290.938 388.479 297.918C378.034 304.607 365.768 309.262 351.68 311.879C337.834 314.497 322.894 315.806 306.863 315.806H233.226L276.947 252.983H316.702C326.418 252.983 334.312 250.365 340.384 245.13C346.699 239.895 349.857 231.461 349.857 219.828C349.857 207.904 346.7 199.47 340.384 194.526C334.312 189.291 326.418 186.673 316.702 186.673H173.506V187.338H173.039V324.407L172.828 396.513H101V116H306.863Z" fill="white"/>
</svg>
